<svg width="170" height="170" viewBox="0 0 170 170" fill="none" xmlns="http://www.w3.org/2000/svg">
<rect x="80" y="80" width="10" height="10" fill="#FFD300"/>
<rect x="90" y="80" width="10" height="10" fill="#FEE977"/>
<rect x="80" y="70" width="10" height="10" fill="#FEE977"/>
<rect x="70" y="80" width="10" height="10" fill="#FEE977"/>
<rect x="80" y="90" width="10" height="10" fill="#FEE977"/>
<rect x="90" y="70" width="10" height="10" fill="#FFFAD2"/>
<rect x="90" y="90" width="10" height="10" fill="#FFFAD2"/>
<rect x="70" y="90" width="10" height="10" fill="#FFFAD2"/>
<rect x="70" y="70" width="10" height="10" fill="#FFFAD2"/>
<rect x="80" y="60" width="10" height="10" fill="#FFFAD2"/>
<rect x="80" y="100" width="10" height="10" fill="#FFFAD2"/>
<rect x="100" y="80" width="10" height="10" fill="#FFFAD2"/>
<rect x="60" y="80" width="10" height="10" fill="#FFFAD2"/>
<rect x="90" y="60" width="10" height="10" fill="#A26BB8"/>
<rect x="70" y="100" width="10" height="10" fill="#A26BB8"/>
<rect x="100" y="90" width="10" height="10" fill="#A26BB8"/>
<rect x="100" y="100" width="10" height="10" fill="#A26BB8"/>
<rect x="100" y="70" width="10" height="10" fill="#DCB8DB"/>
<rect x="90" y="100" width="10" height="10" fill="#DCB8DB"/>
<rect x="60" y="90" width="10" height="10" fill="#DCB8DB"/>
<rect x="70" y="60" width="10" height="10" fill="#DCB8DB"/>
<rect x="70" y="50" width="10" height="10" fill="#DCB8DB"/>
<rect x="90" y="110" width="10" height="10" fill="#DCB8DB"/>
<rect x="50" y="90" width="10" height="10" fill="#DCB8DB"/>
<rect x="110" y="70" width="10" height="10" fill="#DCB8DB"/>
<rect x="110" y="80" width="10" height="10" fill="#DCB8DB"/>
<rect x="80" y="110" width="10" height="10" fill="#DCB8DB"/>
<rect x="50" y="80" width="10" height="10" fill="#DCB8DB"/>
<rect x="80" y="50" width="10" height="10" fill="#DCB8DB"/>
<rect x="70" y="40" width="10" height="10" fill="#DCB8DB"/>
<rect x="130" y="90" width="10" height="10" fill="#DCB8DB"/>
<rect x="90" y="120" width="10" height="10" fill="#DCB8DB"/>
<rect x="30" y="70" width="10" height="10" fill="#DCB8DB"/>
<rect x="30" y="120" width="10" height="10" fill="#DCB8DB"/>
<rect x="50" y="100" width="10" height="10" fill="#DCB8DB"/>
<rect x="40" y="110" width="10" height="10" fill="#DCB8DB"/>
<rect x="110" y="60" width="10" height="10" fill="#DCB8DB"/>
<rect x="130" y="40" width="10" height="10" fill="#DCB8DB"/>
<rect x="120" y="50" width="10" height="10" fill="#DCB8DB"/>
<rect x="100" y="60" width="10" height="10" fill="#A26BB8"/>
<rect x="110" y="50" width="10" height="10" fill="#A26BB8"/>
<rect x="50" y="110" width="10" height="10" fill="#A26BB8"/>
<rect x="110" y="100" width="10" height="10" fill="#A26BB8"/>
<rect x="120" y="110" width="10" height="10" fill="#A26BB8"/>
<rect x="60" y="100" width="10" height="10" fill="#A26BB8"/>
<rect x="110" y="40" width="10" height="10" fill="#681D94"/>
<rect x="120" y="40" width="10" height="10" fill="#681D94"/>
<rect x="130" y="50" width="10" height="10" fill="#681D94"/>
<rect x="130" y="60" width="10" height="10" fill="#681D94"/>
<rect x="30" y="110" width="10" height="10" fill="#681D94"/>
<rect x="30" y="100" width="10" height="10" fill="#681D94"/>
<rect x="40" y="120" width="10" height="10" fill="#681D94"/>
<rect x="50" y="120" width="10" height="10" fill="#681D94"/>
<rect x="60" y="110" width="10" height="10" fill="#681D94"/>
<rect x="100" y="50" width="10" height="10" fill="#681D94"/>
<rect x="90" y="50" width="10" height="10" fill="#681D94"/>
<rect x="100" y="40" width="10" height="10" fill="#681D94"/>
<rect x="90" y="40" width="10" height="10" fill="#681D94"/>
<rect x="100" y="30" width="10" height="10" fill="#681D94"/>
<rect x="110" y="30" width="10" height="10" fill="#681D94"/>
<rect x="120" y="30" width="10" height="10" fill="#681D94"/>
<rect x="130" y="30" width="10" height="10" fill="#681D94"/>
<rect x="110" y="20" width="10" height="10" fill="#681D94"/>
<rect x="120" y="20" width="10" height="10" fill="#681D94"/>
<rect x="130" y="20" width="10" height="10" fill="#681D94"/>
<rect x="140" y="30" width="10" height="10" fill="#681D94"/>
<rect x="140" y="40" width="10" height="10" fill="#681D94"/>
<rect x="140" y="50" width="10" height="10" fill="#681D94"/>
<rect x="20" y="130" width="10" height="10" fill="#681D94"/>
<rect x="30" y="130" width="10" height="10" fill="#681D94"/>
<rect x="40" y="130" width="10" height="10" fill="#681D94"/>
<rect x="20" y="120" width="10" height="10" fill="#681D94"/>
<rect x="20" y="110" width="10" height="10" fill="#681D94"/>
<rect x="60" y="120" width="10" height="10" fill="#681D94"/>
<rect x="70" y="110" width="10" height="10" fill="#681D94"/>
<rect x="70" y="120" width="10" height="10" fill="#681D94"/>
<rect x="60" y="130" width="10" height="10" fill="#681D94"/>
<rect x="50" y="130" width="10" height="10" fill="#681D94"/>
<rect x="50" y="140" width="10" height="10" fill="#681D94"/>
<rect x="40" y="140" width="10" height="10" fill="#681D94"/>
<rect x="30" y="140" width="10" height="10" fill="#681D94"/>
<rect x="80" y="130" width="10" height="10" fill="#681D94"/>
<rect x="100" y="120" width="10" height="10" fill="#681D94"/>
<rect x="110" y="110" width="10" height="10" fill="#681D94"/>
<rect x="70" y="30" width="10" height="10" fill="#681D94"/>
<rect x="110" y="90" width="10" height="10" fill="#681D94"/>
<rect x="120" y="100" width="10" height="10" fill="#681D94"/>
<rect x="140" y="90" width="10" height="10" fill="#681D94"/>
<rect x="140" y="100" width="10" height="10" fill="#681D94"/>
<rect x="150" y="90" width="10" height="10" fill="#681D94"/>
<rect x="120" y="80" width="10" height="10" fill="#681D94"/>
<rect x="40" y="80" width="10" height="10" fill="#681D94"/>
<rect x="30" y="80" width="10" height="10" fill="#681D94"/>
<rect x="130" y="80" width="10" height="10" fill="#681D94"/>
<rect x="130" y="100" width="10" height="10" fill="#681D94"/>
<rect x="110" y="130" width="10" height="10" fill="#681D94"/>
<rect x="100" y="140" width="10" height="10" fill="#681D94"/>
<rect x="90" y="140" width="10" height="10" fill="#681D94"/>
<rect x="140" y="110" width="10" height="10" fill="#681D94"/>
<rect x="90" y="150" width="10" height="10" fill="#681D94"/>
<rect x="120" y="60" width="10" height="10" fill="#681D94"/>
<rect x="140" y="120" width="10" height="10" fill="#681D94"/>
<rect x="130" y="130" width="10" height="10" fill="#681D94"/>
<rect x="140" y="130" width="10" height="10" fill="#681D94"/>
<rect x="130" y="110" width="10" height="10" fill="#681D94"/>
<rect x="120" y="120" width="10" height="10" fill="#681D94"/>
<rect x="80" y="140" width="10" height="10" fill="#681D94"/>
<rect x="130" y="120" width="10" height="10" fill="#681D94"/>
<rect x="40" y="60" width="10" height="10" fill="#681D94"/>
<rect x="40" y="100" width="10" height="10" fill="#681D94"/>
<rect x="90" y="130" width="10" height="10" fill="#681D94"/>
<rect x="100" y="130" width="10" height="10" fill="#681D94"/>
<rect x="100" y="110" width="10" height="10" fill="#681D94"/>
<rect x="140" y="20" width="10" height="10" fill="#2F073E"/>
<rect x="150" y="30" width="10" height="10" fill="#2F073E"/>
<rect x="150" y="40" width="10" height="10" fill="#2F073E"/>
<rect x="150" y="50" width="10" height="10" fill="#2F073E"/>
<rect x="140" y="60" width="10" height="10" fill="#2F073E"/>
<rect x="130" y="70" width="10" height="10" fill="#2F073E"/>
<rect x="120" y="70" width="10" height="10" fill="#2F073E"/>
<rect x="140" y="80" width="10" height="10" fill="#2F073E"/>
<rect x="140" y="70" width="10" height="10" fill="#2F073E"/>
<rect x="150" y="80" width="10" height="10" fill="#2F073E"/>
<rect x="160" y="90" width="10" height="10" fill="#2F073E"/>
<rect x="150" y="100" width="10" height="10" fill="#2F073E"/>
<rect x="160" y="100" width="10" height="10" fill="#2F073E"/>
<rect x="150" y="110" width="10" height="10" fill="#2F073E"/>
<rect x="150" y="120" width="10" height="10" fill="#2F073E"/>
<rect x="140" y="140" width="10" height="10" fill="#2F073E"/>
<rect x="130" y="140" width="10" height="10" fill="#2F073E"/>
<rect x="120" y="130" width="10" height="10" fill="#2F073E"/>
<rect x="110" y="120" width="10" height="10" fill="#2F073E"/>
<rect x="110" y="140" width="10" height="10" fill="#2F073E"/>
<rect x="100" y="150" width="10" height="10" fill="#2F073E"/>
<rect x="90" y="160" width="10" height="10" fill="#2F073E"/>
<rect x="100" y="160" width="10" height="10" fill="#2F073E"/>
<rect x="80" y="160" width="10" height="10" fill="#2F073E"/>
<rect x="80" y="150" width="10" height="10" fill="#2F073E"/>
<rect x="70" y="140" width="10" height="10" fill="#2F073E"/>
<rect x="150" y="130" width="10" height="10" fill="#2F073E"/>
<rect x="130" y="10" width="10" height="10" fill="#2F073E"/>
<rect x="110" y="10" width="10" height="10" fill="#2F073E"/>
<rect x="120" y="10" width="10" height="10" fill="#2F073E"/>
<rect x="100" y="20" width="10" height="10" fill="#2F073E"/>
<rect x="90" y="30" width="10" height="10" fill="#2F073E"/>
<rect x="80" y="40" width="10" height="10" fill="#2F073E"/>
<rect x="80" y="120" width="10" height="10" fill="#2F073E"/>
<rect x="20" y="140" width="10" height="10" fill="#2F073E"/>
<rect x="30" y="150" width="10" height="10" fill="#2F073E"/>
<rect x="40" y="150" width="10" height="10" fill="#2F073E"/>
<rect x="50" y="150" width="10" height="10" fill="#2F073E"/>
<rect x="60" y="140" width="10" height="10" fill="#2F073E"/>
<rect x="10" y="130" width="10" height="10" fill="#2F073E"/>
<rect x="10" y="120" width="10" height="10" fill="#2F073E"/>
<rect x="10" y="110" width="10" height="10" fill="#2F073E"/>
<rect x="20" y="100" width="10" height="10" fill="#2F073E"/>
<rect x="20" y="90" width="10" height="10" fill="#2F073E"/>
<rect x="30" y="90" width="10" height="10" fill="#2F073E"/>
<rect x="40" y="90" width="10" height="10" fill="#2F073E"/>
<rect x="70" y="130" width="10" height="10" fill="#2F073E"/>
<rect x="120" y="90" width="10" height="10" fill="#DCB8DB"/>
<rect x="70" y="80" width="10" height="10" transform="rotate(180 70 80)" fill="#A26BB8"/>
<rect x="70" y="70" width="10" height="10" transform="rotate(180 70 70)" fill="#A26BB8"/>
<rect x="60" y="70" width="10" height="10" transform="rotate(180 60 70)" fill="#A26BB8"/>
<rect x="50" y="60" width="10" height="10" transform="rotate(180 50 60)" fill="#A26BB8"/>
<rect x="70" y="50" width="10" height="10" transform="rotate(180 70 50)" fill="#681D94"/>
<rect x="60" y="60" width="10" height="10" transform="rotate(180 60 60)" fill="#681D94"/>
<rect x="60" y="80" width="10" height="10" transform="rotate(180 60 80)" fill="#681D94"/>
<rect x="40" y="70" width="10" height="10" transform="rotate(180 40 70)" fill="#681D94"/>
<rect x="30" y="80" width="10" height="10" transform="rotate(180 30 80)" fill="#681D94"/>
<rect x="20" y="80" width="10" height="10" transform="rotate(180 20 80)" fill="#681D94"/>
<rect x="90" y="30" width="10" height="10" transform="rotate(180 90 30)" fill="#681D94"/>
<rect x="50" y="50" width="10" height="10" transform="rotate(180 50 50)" fill="#681D94"/>
<rect x="80" y="30" width="10" height="10" transform="rotate(180 80 30)" fill="#681D94"/>
<rect x="80" y="20" width="10" height="10" transform="rotate(180 80 20)" fill="#681D94"/>
<rect x="70" y="30" width="10" height="10" transform="rotate(180 70 30)" fill="#681D94"/>
<rect x="30" y="60" width="10" height="10" transform="rotate(180 30 60)" fill="#681D94"/>
<rect x="30" y="70" width="10" height="10" transform="rotate(180 30 70)" fill="#681D94"/>
<rect x="40" y="40" width="10" height="10" transform="rotate(180 40 40)" fill="#681D94"/>
<rect x="30" y="40" width="10" height="10" transform="rotate(180 30 40)" fill="#681D94"/>
<rect x="90" y="40" width="10" height="10" transform="rotate(180 90 40)" fill="#681D94"/>
<rect x="40" y="60" width="10" height="10" transform="rotate(180 40 60)" fill="#681D94"/>
<rect x="40" y="50" width="10" height="10" transform="rotate(180 40 50)" fill="#681D94"/>
<rect x="30" y="50" width="10" height="10" transform="rotate(180 30 50)" fill="#681D94"/>
<rect x="70" y="40" width="10" height="10" transform="rotate(180 70 40)" fill="#681D94"/>
<rect x="60" y="40" width="10" height="10" transform="rotate(180 60 40)" fill="#681D94"/>
<rect x="70" y="60" width="10" height="10" transform="rotate(180 70 60)" fill="#681D94"/>
<rect x="30" y="90" width="10" height="10" transform="rotate(180 30 90)" fill="#2F073E"/>
<rect x="20" y="70" width="10" height="10" transform="rotate(180 20 70)" fill="#2F073E"/>
<rect x="10" y="70" width="10" height="10" transform="rotate(180 10 70)" fill="#2F073E"/>
<rect x="20" y="90" width="10" height="10" transform="rotate(180 20 90)" fill="#2F073E"/>
<rect x="10" y="80" width="10" height="10" transform="rotate(180 10 80)" fill="#2F073E"/>
<rect x="20" y="60" width="10" height="10" transform="rotate(180 20 60)" fill="#2F073E"/>
<rect x="20" y="40" width="10" height="10" transform="rotate(180 20 40)" fill="#2F073E"/>
<rect x="30" y="30" width="10" height="10" transform="rotate(180 30 30)" fill="#2F073E"/>
<rect x="39" y="30" width="10" height="10" transform="rotate(180 39 30)" fill="#2F073E"/>
<rect x="50" y="40" width="10" height="10" transform="rotate(180 50 40)" fill="#2F073E"/>
<rect x="60" y="50" width="10" height="10" transform="rotate(180 60 50)" fill="#2F073E"/>
<rect x="100" y="30" width="10" height="10" transform="rotate(180 100 30)" fill="#2F073E"/>
<rect x="90" y="10" width="10" height="10" transform="rotate(180 90 10)" fill="#2F073E"/>
<rect x="70" y="10" width="10" height="10" transform="rotate(180 70 10)" fill="#2F073E"/>
<rect x="90" y="20" width="10" height="10" transform="rotate(180 90 20)" fill="#2F073E"/>
<rect x="80" y="10" width="10" height="10" transform="rotate(180 80 10)" fill="#2F073E"/>
<rect x="70" y="20" width="10" height="10" transform="rotate(180 70 20)" fill="#2F073E"/>
<rect x="60" y="30" width="10" height="10" transform="rotate(180 60 30)" fill="#2F073E"/>
<rect x="20" y="50" width="10" height="10" transform="rotate(180 20 50)" fill="#2F073E"/>
<rect x="50" y="80" width="10" height="10" transform="rotate(180 50 80)" fill="#DCB8DB"/>
</svg>
